<svg width="380" height="39" viewBox="0 0 380 39" fill="none" xmlns="http://www.w3.org/2000/svg">
<g clip-path="url(#clip0_7401_111331)">
<path d="M0.695435 19.5656C0.556435 20.0086 0.384438 20.6046 0.273438 21.0576C0.350199 20.7447 0.493321 20.4519 0.693115 20.1991C0.89291 19.9464 1.14473 19.7395 1.43146 19.5926C1.99482 18.8674 2.71713 18.2812 3.54272 17.8791C4.36832 17.4771 5.27514 17.2699 6.19342 17.2735V17.2566C2.77242 16.2736 1.71145 17.3986 1.41345 17.9286C1.1328 18.4554 0.893048 19.003 0.696411 19.5666" fill="#2A72E5"/>
<path d="M4.24219 14.3092L3.74219 14.7912C4.32119 14.3172 5.27619 14.4272 6.74219 15.1402C7.06118 14.5698 7.46591 14.0518 7.9422 13.6042C7.2422 13.0952 6.54222 12.6532 6.09222 12.8612C5.44178 13.2981 4.82439 13.7825 4.24518 14.3102" fill="#2A72E5"/>
<path d="M11.2741 10.353C10.7521 10.545 10.0551 10.801 9.53906 11.012C9.80975 11.2992 10.0528 11.6113 10.2651 11.944C11.045 11.5219 11.8564 11.1609 12.6921 10.8641C12.5521 10.2791 12.5171 9.98806 12.6921 9.91406C12.2651 10.0451 11.6921 10.205 11.2711 10.353" fill="#2A72E5"/>
<path d="M19.7507 8.75226C18.9567 8.81626 17.8977 8.91528 17.1047 9.00928C16.6907 9.10928 16.5047 9.26028 16.3047 9.88428C17.3852 9.67872 18.4762 9.53282 19.5727 9.44727C19.7342 9.2199 19.9469 9.03358 20.1935 8.90332C20.4401 8.77306 20.7138 8.70251 20.9927 8.69727L19.7517 8.75226" fill="#2A72E5"/>
<path d="M28.5845 9.2291C27.8415 9.1161 26.8495 8.97409 26.1035 8.88609C25.3577 8.7963 24.6043 8.97343 23.9766 9.38609C25.1154 9.44498 26.2503 9.56421 27.3765 9.74314C28.2177 9.3806 29.1533 9.29886 30.0446 9.51011C29.6066 9.42411 29.0245 9.2961 28.5845 9.2241" fill="#2A72E5"/>
<path d="M36.5447 11.7501C35.9937 11.4941 35.2568 11.1591 34.6988 10.9261C33.5971 10.4697 32.3799 10.3704 31.2188 10.6421C32.1271 10.9228 33.0155 11.2646 33.8777 11.6651C35.4011 11.4788 36.9411 11.8393 38.2237 12.6821C37.7237 12.3931 37.0597 12.0021 36.5447 11.7501Z" fill="#2A72E5"/>
<path d="M44.4526 20.0237C44.0799 18.9601 43.5667 17.9512 42.9266 17.0237L42.5327 16.4817C41.8568 15.5158 40.964 14.7215 39.9259 14.1627C38.8878 13.6039 37.7332 13.296 36.5547 13.2637C37.1229 13.6956 37.6349 14.1968 38.0787 14.7557C42.0967 15.3247 44.8626 18.8557 45.1246 23.7557C45.0911 22.4855 44.8645 21.2277 44.4526 20.0257" fill="#2A72E5"/>
<path d="M38.7051 35.0403C39.4739 34.5429 40.2021 33.9855 40.8831 33.3733C41.1391 33.1233 41.4831 32.7953 41.7301 32.5333C46.7421 26.7233 44.464 18.3413 39.082 16.8223C39.1391 17.0853 39.1703 17.3533 39.175 17.6223C39.175 17.6703 39.175 17.7223 39.175 17.7663C39.1698 18.0327 39.1383 18.298 39.0811 18.5583C44.8391 21.1583 44.2731 31.5283 38.1641 35.3713L38.7041 35.0373" fill="#2A72E5"/>
<path d="M31.1794 38.0957C31.9294 37.9017 32.9244 37.6247 33.6674 37.3957C41.0364 34.6257 42.2134 23.3137 38.0754 20.5957C37.632 21.1408 37.1205 21.6268 36.5534 22.0417C40.0534 25.9017 36.4664 36.8057 29.8984 38.3707L31.1794 38.0977" fill="#2A72E5"/>
<path d="M22.6015 38.9995C23.2965 38.9935 24.2225 38.9825 24.9175 38.9555C31.0395 38.3225 35.3955 27.0795 33.8795 23.5625C33.0156 23.9386 32.1269 24.2547 31.2195 24.5085C31.2055 29.0085 25.1525 39.0555 20.8125 38.9405C21.3485 38.9595 22.0645 38.9995 22.6005 39.0005" fill="#2A72E5"/>
<path d="M13.7264 37.84C14.4104 38.005 15.3264 38.2171 16.0114 38.3571C18.5654 38.5441 24.9964 29.8731 27.3724 25.2891C26.2412 25.4357 25.1029 25.5218 23.9625 25.5471C22.1085 27.3471 17.2165 33.0081 16.2545 34.1251C13.7785 37.0001 12.8544 37.5461 12.5234 37.4971L13.7234 37.8411" fill="#2A72E5"/>
<path d="M6.26333 34.5931C7.00495 35.0904 7.77827 35.5386 8.57834 35.9351L8.64432 35.9681C8.78232 35.2361 14.8693 27.9681 19.5683 25.3621C18.4721 25.2442 17.3832 25.0666 16.3064 24.8301C10.6924 26.9831 4.96136 33.5671 5.94736 34.3761L6.26333 34.5931Z" fill="#2A72E5"/>
<path d="M2.19968 30.6587C2.46568 31.0167 2.82464 31.4907 3.10764 31.8307C1.84264 29.9037 7.17364 24.9127 12.6906 23.7487C11.8538 23.4267 11.0425 23.0419 10.2636 22.5977C5.18764 23.1497 0.35564 26.7477 1.34964 29.2367C1.59264 29.6727 1.91868 30.2537 2.19968 30.6587Z" fill="#2A72E5"/>
<path d="M0.00195312 23.6019C0.00195312 23.6832 0.00195312 23.7642 0.00195312 23.8449C0.0239531 24.2669 0.0589897 24.8289 0.10199 25.2449C-0.0340103 22.5079 4.12097 20.7399 7.93597 20.8639C7.45972 20.402 7.05523 19.8715 6.73596 19.2899C3.51096 18.8759 1.747 19.7069 0.835999 20.4779C0.30576 21.434 0.0186724 22.5058 0 23.5989" fill="#2A72E5"/>
<path d="M67.3031 15.1387H54.3281V17.7466H59.2892V32.4946H62.3651V17.7466H67.3031V15.1387Z" fill="white"/>
<path d="M77.1512 20.7925C76.5998 20.2751 75.9446 19.8811 75.2292 19.6365C73.6052 19.103 71.8532 19.103 70.2292 19.6365C69.5183 19.8832 68.8676 20.2771 68.3193 20.7925C67.7797 21.3166 67.3611 21.9525 67.0932 22.6554C66.79 23.4683 66.6422 24.331 66.6573 25.1985V26.7195C66.6443 27.5829 66.7921 28.4412 67.0932 29.2505C67.3594 29.9581 67.7784 30.5983 68.3203 31.1255C68.8685 31.641 69.5194 32.0349 70.2303 32.2815C71.8543 32.8151 73.6064 32.8151 75.2303 32.2815C75.9454 32.0368 76.6001 31.6427 77.1512 31.1255C77.693 30.5982 78.112 29.958 78.3783 29.2505C78.6788 28.441 78.8262 27.5828 78.8132 26.7195V25.1985C78.828 24.331 78.6802 23.4684 78.3773 22.6554C78.1092 21.9526 77.6907 21.3168 77.1512 20.7925ZM73.9403 29.8415C73.1563 30.0886 72.3152 30.0886 71.5312 29.8415C71.1729 29.7246 70.8461 29.5275 70.5753 29.2654C70.2872 28.9726 70.0702 28.6175 69.9412 28.2275C69.7763 27.726 69.6979 27.2002 69.7093 26.6725V25.2444C69.6626 24.7795 69.711 24.3099 69.8516 23.8643C69.9923 23.4187 70.2222 23.0064 70.5273 22.6525C71.1574 22.1592 71.9345 21.8911 72.7347 21.8911C73.5349 21.8911 74.3121 22.1592 74.9422 22.6525C75.2474 23.0063 75.4772 23.4187 75.6179 23.8643C75.7585 24.3099 75.8069 24.7795 75.7602 25.2444V26.6725C75.7715 27.2002 75.6931 27.726 75.5283 28.2275C75.3993 28.6175 75.1823 28.9726 74.8942 29.2654C74.6237 29.5274 74.2982 29.7244 73.9403 29.8415Z" fill="white"/>
<path d="M92.7246 19.5176H88.8936L84.1306 24.9056V15.1387H81.1016V32.4946H84.1306V28.6276L85.5596 27.0397L89.0416 32.4727L89.0536 32.4907H92.9196L87.6755 24.8906L92.7246 19.5176Z" fill="white"/>
<path d="M102.985 20.3329C102.485 19.9619 101.921 19.6859 101.322 19.5189C99.6673 19.0709 97.9134 19.1574 96.3109 19.7659C95.5287 20.0928 94.7816 20.4978 94.0809 20.9749L94.0478 20.9969L95.5478 23.2189L95.5819 23.1919C96.608 22.3622 97.8883 21.9107 99.2078 21.9129C99.8247 21.8597 100.439 22.0443 100.924 22.4289C101.122 22.6604 101.272 22.9294 101.364 23.2199C101.456 23.5104 101.489 23.8164 101.461 24.1199V24.5709H98.5528C97.7749 24.5547 96.9988 24.65 96.2479 24.8539C95.6912 25.0052 95.1721 25.2708 94.7238 25.6339C94.3501 25.9473 94.0639 26.3521 93.8929 26.8089C93.7235 27.2827 93.6395 27.7827 93.6449 28.2859V29.0349C93.6192 29.5418 93.7105 30.0479 93.9118 30.5138C94.1132 30.9798 94.4191 31.3932 94.8059 31.7219C95.7459 32.411 96.8974 32.7495 98.0609 32.6789C98.4253 32.6765 98.7885 32.637 99.1449 32.5609C99.5171 32.4835 99.8805 32.369 100.23 32.2189C100.566 32.0748 100.881 31.8835 101.164 31.6509C101.38 31.4759 101.562 31.2619 101.7 31.0199L101.743 32.4909H104.466V23.3909C104.477 22.7809 104.343 22.177 104.075 21.6289C103.815 21.1198 103.442 20.6767 102.985 20.3329ZM101.458 26.9469V27.2579C101.463 27.6511 101.44 28.0441 101.388 28.4339C101.329 28.7532 101.169 29.045 100.931 29.2659C100.569 29.5751 100.15 29.8098 99.6966 29.9563C99.2437 30.1029 98.7663 30.1585 98.2918 30.1199C97.837 30.1515 97.3845 30.0308 97.0058 29.7769C96.8641 29.6634 96.7514 29.518 96.6768 29.3525C96.6023 29.187 96.568 29.0062 96.5769 28.8249V28.5439C96.5667 28.3296 96.6009 28.1155 96.6773 27.9151C96.7537 27.7146 96.8707 27.5321 97.0208 27.3789C97.4816 27.0402 98.0522 26.8858 98.6208 26.9459L101.458 26.9469Z" fill="white"/>
<path d="M124.231 20.467C123.826 20.061 123.338 19.7466 122.801 19.545C122.254 19.3403 121.674 19.2363 121.09 19.238C120.256 19.2066 119.426 19.3781 118.672 19.738C118.043 20.0836 117.503 20.5725 117.097 21.165C116.834 20.5743 116.38 20.0885 115.809 19.785C115.14 19.4317 114.396 19.245 113.639 19.241C112.882 19.237 112.136 19.4157 111.463 19.762C110.892 20.0817 110.422 20.5553 110.107 21.129V19.523H107.242V32.5H110.272V24.549C110.245 24.1958 110.287 23.8406 110.398 23.504C110.508 23.1674 110.685 22.8561 110.916 22.588C111.138 22.3724 111.401 22.2042 111.69 22.0934C111.979 21.9827 112.287 21.9319 112.596 21.944C112.901 21.9418 113.204 21.9846 113.496 22.071C113.77 22.1556 114.018 22.3091 114.216 22.517C114.44 22.762 114.608 23.0522 114.71 23.368C114.845 23.803 114.907 24.257 114.895 24.712V32.499H117.924V24.665C117.912 24.216 117.983 23.7686 118.132 23.345C118.246 23.0303 118.427 22.7438 118.661 22.505C118.87 22.3019 119.126 22.1526 119.405 22.07C119.967 21.9048 120.563 21.901 121.126 22.059C121.402 22.1365 121.654 22.2819 121.858 22.482C122.091 22.7252 122.263 23.0208 122.358 23.344C122.494 23.8031 122.556 24.2806 122.543 24.759V32.5H125.572V24.151C125.586 23.4193 125.462 22.6917 125.206 22.006C124.99 21.4319 124.658 20.9082 124.231 20.467Z" fill="white"/>
<path d="M137.111 20.333C136.611 19.962 136.047 19.6861 135.448 19.519C133.793 19.0709 132.039 19.1573 130.436 19.766C129.654 20.0929 128.907 20.4979 128.206 20.975L128.173 20.997L129.673 23.219L129.707 23.192C130.733 22.3622 132.013 21.9106 133.333 21.913C133.95 21.8598 134.564 22.0444 135.049 22.429C135.247 22.6604 135.397 22.9294 135.49 23.2199C135.582 23.5104 135.615 23.8165 135.587 24.12V24.571H132.678C131.9 24.5548 131.124 24.6501 130.373 24.854C129.816 25.0056 129.297 25.2712 128.849 25.634C128.475 25.9475 128.189 26.3522 128.018 26.809C127.849 27.2828 127.765 27.7829 127.77 28.286V29.035C127.744 29.5419 127.835 30.048 128.037 30.514C128.238 30.98 128.544 31.3933 128.931 31.722C129.871 32.4112 131.022 32.7497 132.186 32.679C132.551 32.6767 132.914 32.6371 133.271 32.561C133.643 32.4836 134.006 32.3691 134.355 32.219C134.692 32.0749 135.006 31.8836 135.289 31.651C135.505 31.4761 135.687 31.262 135.825 31.02L135.868 32.491H138.591V23.391C138.602 22.7811 138.468 22.1773 138.201 21.629C137.94 21.1201 137.567 20.6771 137.111 20.333ZM135.584 26.947V27.258C135.589 27.6512 135.566 28.0442 135.514 28.434C135.455 28.7533 135.295 29.0451 135.057 29.266C134.695 29.5752 134.276 29.8099 133.823 29.9564C133.37 30.103 132.892 30.1586 132.418 30.12C131.963 30.1517 131.511 30.031 131.132 29.777C130.99 29.6636 130.877 29.5181 130.803 29.3526C130.728 29.1871 130.694 29.0063 130.703 28.825V28.544C130.693 28.3297 130.727 28.1156 130.803 27.9152C130.88 27.7147 130.997 27.5322 131.147 27.379C131.608 27.0403 132.178 26.8859 132.747 26.946L135.584 26.947Z" fill="white"/>
<path d="M152.982 19.5176H149.15L144.388 24.9056V15.1387H141.359V32.4946H144.388V28.6276L145.816 27.0397L149.298 32.4727L149.31 32.4907H153.176L147.932 24.8906L152.982 19.5176Z" fill="white"/>
<path d="M169.542 25.7877L163.784 15.1597L163.773 15.1396H160.273V32.4957H163.163V20.4957C163.163 20.4957 163.923 21.8466 164.14 22.2186L169.92 32.4706L169.931 32.4907H173.431V15.1387H170.542V27.6476C170.542 27.6476 169.714 26.1017 169.542 25.7877Z" fill="white"/>
<path d="M185.852 20.6675C185.336 20.1812 184.72 19.8145 184.047 19.5935C183.314 19.3533 182.547 19.234 181.776 19.2405C180.99 19.2342 180.207 19.3534 179.459 19.5935C178.761 19.8204 178.122 20.1956 177.584 20.6935C177.028 21.2213 176.597 21.8658 176.322 22.5805C175.998 23.4493 175.842 24.3716 175.863 25.2985V26.6325C175.833 27.6258 176.005 28.6147 176.369 29.5395C176.664 30.258 177.125 30.8967 177.714 31.4035C178.269 31.8653 178.917 32.2031 179.614 32.3945C180.326 32.591 181.062 32.6898 181.801 32.6885C182.847 32.7099 183.89 32.5833 184.901 32.3125C185.685 32.0897 186.43 31.7484 187.111 31.3005L187.142 31.2795L185.887 29.0795L185.853 29.0995C185.267 29.4419 184.641 29.7105 183.99 29.8995C183.328 30.0708 182.647 30.1529 181.964 30.1435C181.114 30.2008 180.276 29.9233 179.628 29.3705C179.347 29.0685 179.13 28.7123 178.991 28.3237C178.852 27.9351 178.794 27.5223 178.821 27.1105H187.457V24.9405C187.472 24.0932 187.328 23.2506 187.033 22.4565C186.774 21.7814 186.371 21.1709 185.852 20.6675ZM181.729 21.7545C182.171 21.743 182.612 21.8136 183.029 21.9625C183.355 22.0845 183.653 22.2727 183.904 22.5155C184.129 22.7395 184.298 23.0136 184.398 23.3155C184.498 23.6293 184.549 23.957 184.548 24.2865V24.8085H178.824V24.3565C178.817 24.0163 178.878 23.6782 179.003 23.3616C179.127 23.045 179.313 22.7561 179.55 22.5115C179.841 22.2424 180.186 22.0361 180.56 21.9054C180.935 21.7747 181.333 21.7223 181.729 21.7515V21.7545Z" fill="white"/>
<path d="M196.568 29.7017C196.265 29.8293 195.95 29.9264 195.628 29.9916C195.341 30.0458 195.05 30.0729 194.757 30.0726C194.438 30.0905 194.122 30.003 193.857 29.8237C193.73 29.684 193.635 29.5179 193.579 29.3373C193.523 29.1566 193.508 28.9658 193.534 28.7786V22.0276H196.787V19.5176H193.534V15.1387L190.505 16.2177V19.5176H188.445V22.0276H190.505V28.7986C190.498 29.3501 190.562 29.9001 190.693 30.4357C190.805 30.8888 191.025 31.3081 191.334 31.6577C191.666 32.0096 192.083 32.2712 192.544 32.4177C193.147 32.605 193.776 32.6928 194.406 32.6777C195.322 32.6855 196.229 32.5008 197.068 32.1356L197.096 32.1226L196.612 29.6807L196.568 29.7017Z" fill="white"/>
<path d="M210.125 29.5145H210.095L207.88 19.5515L207.873 19.5205H205.023L202.684 29.5145H202.655L200.766 19.5526L200.76 19.5195H197.516L200.734 32.4666L200.741 32.4965H204.241L206.372 23.4146H206.402L208.508 32.4965H212.008L215.198 19.5695L215.21 19.5195H212.178L210.125 29.5145Z" fill="white"/>
<path d="M226.606 20.7925C226.054 20.2752 225.399 19.8811 224.683 19.6365C223.059 19.103 221.307 19.103 219.683 19.6365C218.972 19.883 218.322 20.277 217.773 20.7925C217.234 21.3166 216.815 21.9524 216.546 22.6554C216.244 23.4684 216.096 24.331 216.11 25.1985V26.7195C216.097 27.5828 216.245 28.4411 216.545 29.2505C216.812 29.9581 217.231 30.5983 217.772 31.1255C218.321 31.641 218.971 32.035 219.682 32.2815C221.306 32.8151 223.058 32.8151 224.682 32.2815C225.397 32.0367 226.052 31.6426 226.604 31.1255C227.145 30.5983 227.564 29.9581 227.83 29.2505C228.132 28.4412 228.279 27.5829 228.266 26.7195V25.1985C228.281 24.331 228.133 23.4684 227.83 22.6554C227.563 21.9527 227.145 21.3169 226.606 20.7925ZM223.394 29.8415C222.61 30.0885 221.769 30.0885 220.985 29.8415C220.627 29.7246 220.3 29.5275 220.029 29.2654C219.741 28.9725 219.525 28.6174 219.396 28.2275C219.231 27.726 219.152 27.2002 219.163 26.6725V25.2444C219.117 24.7795 219.165 24.3099 219.306 23.8643C219.446 23.4187 219.676 23.0063 219.981 22.6525C220.612 22.1589 221.389 21.8907 222.189 21.8907C222.99 21.8907 223.767 22.1589 224.397 22.6525C224.703 23.0064 224.932 23.4187 225.073 23.8643C225.214 24.3099 225.262 24.7795 225.215 25.2444V26.6725C225.227 27.2002 225.149 27.7261 224.983 28.2275C224.855 28.6173 224.638 28.9723 224.35 29.2654C224.079 29.5279 223.751 29.7249 223.391 29.8415H223.394Z" fill="white"/>
<path d="M238.059 19.3083C237.731 19.2617 237.401 19.2383 237.07 19.2383C236.275 19.2029 235.488 19.4093 234.812 19.8303C234.245 20.2236 233.78 20.7481 233.459 21.3592V19.5193H230.547V32.4963H233.576V24.8022C233.572 24.4104 233.646 24.0217 233.795 23.6592C233.935 23.3232 234.139 23.0175 234.395 22.7593C234.652 22.504 234.958 22.3039 235.295 22.1713C235.652 22.031 236.032 21.9604 236.415 21.9632C236.726 21.9584 237.037 21.9815 237.344 22.0323C237.582 22.0762 237.814 22.1459 238.037 22.2402L238.078 22.2573L238.946 19.5093L238.909 19.4963C238.632 19.4089 238.347 19.346 238.059 19.3083Z" fill="white"/>
<path d="M246.995 24.8987L252.045 19.5177H248.213L243.451 24.9057V15.1387H240.422V32.4947H243.451V28.6287L244.88 27.0407L248.362 32.4737L248.374 32.4917H252.24L246.995 24.8987Z" fill="white"/>
<path d="M339.2 0H371.444C372.521 0 373.587 0.212099 374.582 0.624188C375.577 1.03628 376.481 1.64028 377.242 2.40172C378.004 3.16316 378.608 4.06713 379.02 5.062C379.432 6.05687 379.644 7.12316 379.644 8.2C379.644 9.27684 379.432 10.3431 379.02 11.338C378.608 12.3329 378.004 13.2368 377.242 13.9983C376.481 14.7597 375.577 15.3637 374.582 15.7758C373.587 16.1879 372.521 16.4 371.444 16.4H331.658C331.484 16.4 331.317 16.3312 331.194 16.2087C331.071 16.0862 331.001 15.9198 331 15.746V8.2C331 6.02522 331.864 3.93952 333.402 2.40172C334.94 0.863926 337.025 0 339.2 0Z" fill="#2A72E5"/>
<path d="M336.57 11.0008L337.512 10.0828C337.764 10.3916 338.08 10.6412 338.438 10.814C338.796 10.9869 339.189 11.0787 339.586 11.0828C340.608 11.0828 341.267 10.6008 341.392 9.88881C341.528 9.11981 340.992 8.87883 340.277 8.53383L339.195 8.02882C338.743 7.88327 338.358 7.57844 338.113 7.17091C337.868 6.76339 337.78 6.28085 337.864 5.81282C338.042 5.11456 338.458 4.50013 339.04 4.07484C339.621 3.64955 340.333 3.43989 341.052 3.48183C341.503 3.47134 341.949 3.56184 342.36 3.74666C342.77 3.93148 343.134 4.20591 343.424 4.54982L342.574 5.39882C342.359 5.15495 342.093 4.96085 341.795 4.82997C341.497 4.69909 341.174 4.63455 340.848 4.64082C340.492 4.59425 340.132 4.67945 339.834 4.88039C339.536 5.08132 339.322 5.38415 339.232 5.73183C339.104 6.45483 339.733 6.73181 340.374 7.00581L341.445 7.49983C341.916 7.64006 342.314 7.95488 342.56 8.37977C342.805 8.80467 342.879 9.3074 342.765 9.7848C342.581 10.5315 342.137 11.1884 341.513 11.6384C340.89 12.0884 340.126 12.3022 339.359 12.2418C338.831 12.2579 338.306 12.1546 337.823 11.9398C337.34 11.7249 336.912 11.404 336.57 11.0008Z" fill="white"/>
<path d="M344.887 5.7768H346.195L345.081 12.0918H343.773L344.887 5.7768ZM345.049 3.81385C345.092 3.58857 345.214 3.38593 345.393 3.24268C345.572 3.09943 345.796 3.02503 346.025 3.03284C346.128 3.01931 346.233 3.03084 346.33 3.06647C346.428 3.1021 346.515 3.16073 346.585 3.23743C346.655 3.31413 346.705 3.40661 346.732 3.50696C346.758 3.60732 346.76 3.71263 346.737 3.81385C346.69 4.0391 346.566 4.24073 346.386 4.38349C346.205 4.52625 345.98 4.60101 345.75 4.59479C345.648 4.60702 345.544 4.59448 345.448 4.55823C345.352 4.52198 345.266 4.46312 345.197 4.38654C345.128 4.30997 345.079 4.21797 345.053 4.11829C345.027 4.01861 345.026 3.9142 345.049 3.81385Z" fill="white"/>
<path d="M348.111 5.77737H349.19L349.138 6.66134H349.173C349.734 6.06481 350.493 5.69328 351.308 5.61636C351.666 5.56696 352.029 5.66123 352.318 5.87857C352.607 6.09591 352.798 6.4187 352.849 6.7764C353.435 6.12639 354.239 5.71367 355.109 5.61636C356.429 5.61636 356.891 6.51636 356.609 8.11636L355.909 12.0883H354.589L355.261 8.2764C355.454 7.1854 355.186 6.74936 354.474 6.74936C353.864 6.84029 353.305 7.14551 352.899 7.61038L352.109 12.0883H350.789L351.461 8.2764C351.653 7.1854 351.397 6.74936 350.674 6.74936C350.064 6.8431 349.507 7.14783 349.099 7.61038L348.309 12.0883H347L348.111 5.77737Z" fill="white"/>
<path d="M358.86 5.7782H359.939L359.921 6.46722H359.956C360.552 5.981 361.28 5.68484 362.046 5.61719C363.653 5.61719 364.324 6.89121 363.982 8.83221C363.599 11.0022 362.082 12.2422 360.66 12.2422C360.368 12.2331 360.082 12.1654 359.818 12.043C359.553 11.9207 359.316 11.7463 359.121 11.5302L358.965 12.6092L358.605 14.6532H357.297L358.86 5.7782ZM362.611 8.85516C362.843 7.53516 362.563 6.71918 361.511 6.71918C360.892 6.77902 360.313 7.05069 359.871 7.48822L359.327 10.5762C359.49 10.7526 359.687 10.8944 359.906 10.993C360.125 11.0917 360.362 11.1451 360.603 11.1502C361.518 11.1512 362.352 10.3362 362.611 8.85516Z" fill="white"/>
<path d="M365.164 10.6115L366.516 2.94141H367.825L366.46 10.6794C366.398 11.0354 366.536 11.1614 366.697 11.1614C366.772 11.1624 366.847 11.1547 366.92 11.1384V12.1384C366.684 12.2109 366.437 12.2446 366.19 12.2384C365.232 12.2414 364.984 11.6325 365.164 10.6115Z" fill="white"/>
<path d="M368.365 8.94623C368.473 8.07734 368.877 7.27207 369.508 6.66583C370.14 6.05959 370.961 5.68929 371.834 5.61719C373.51 5.61719 374.193 6.82219 373.877 8.61719C373.839 8.84409 373.781 9.06705 373.702 9.2832H369.602C369.543 9.52088 369.542 9.76901 369.597 10.0075C369.652 10.246 369.762 10.4682 369.919 10.656C370.076 10.8438 370.275 10.9921 370.5 11.0887C370.725 11.1853 370.97 11.2277 371.214 11.2122C371.776 11.202 372.324 11.0392 372.801 10.7412L373.112 11.5792C372.435 12.0002 371.656 12.2304 370.859 12.2452C369.151 12.2412 367.999 11.0242 368.365 8.94623ZM372.783 8.37219C372.975 7.28119 372.593 6.65021 371.674 6.65021C371.21 6.68852 370.771 6.8775 370.424 7.18835C370.077 7.49921 369.841 7.9149 369.752 8.37219H372.783Z" fill="white"/>
<path d="M263.032 32.6175C261.513 32.6175 260.378 32.201 259.627 31.368C258.876 30.535 258.5 29.261 258.5 27.546V20H261.562V27.5215C261.562 28.4362 261.75 29.114 262.126 29.555C262.502 29.9797 263.073 30.192 263.841 30.192C264.707 30.192 265.409 29.898 265.948 29.31C266.503 28.722 266.781 27.9462 266.781 26.9825V20H269.844V32.3725H266.855V29.849H267.198C266.838 30.731 266.291 31.417 265.556 31.907C264.837 32.3807 263.996 32.6175 263.032 32.6175Z" fill="#2A72E5"/>
<path d="M271.54 32.6175V23.332C271.54 22.8257 271.523 22.3112 271.491 21.7885C271.458 21.2658 271.409 20.7513 271.344 20.245H274.308L274.553 22.695H274.259C274.651 21.8293 275.231 21.1678 275.999 20.7105C276.766 20.2368 277.657 20 278.669 20C280.123 20 281.217 20.4083 281.952 21.225C282.687 22.0417 283.055 23.3157 283.055 25.047V32.6175H279.992V25.194C279.992 24.1977 279.796 23.4872 279.404 23.0625C279.029 22.6215 278.457 22.401 277.689 22.401C276.742 22.401 275.991 22.695 275.435 23.283C274.88 23.871 274.602 24.655 274.602 25.635V32.6175H271.54Z" fill="#2A72E5"/>
<path d="M289.381 32.3725L284.555 20H287.715L291.194 29.6285H290.557L294.085 20H296.266L299.769 29.6285H299.206L302.66 20H305.649L300.823 32.3725H298.128L294.428 22.5235H295.727L292.101 32.3725H289.381Z" fill="#2A72E5"/>
<path d="M307.32 32.6175V23.4055C307.32 22.8828 307.304 22.352 307.271 21.813C307.255 21.274 307.214 20.7513 307.148 20.245H310.113L310.456 23.626H309.966C310.129 22.8093 310.399 22.1315 310.774 21.5925C311.166 21.0535 311.64 20.6533 312.195 20.392C312.751 20.1307 313.355 20 314.008 20C314.302 20 314.539 20.0163 314.719 20.049C314.899 20.0653 315.078 20.1062 315.258 20.1715L315.233 22.8665C314.923 22.7358 314.654 22.6542 314.425 22.6215C314.213 22.5888 313.943 22.5725 313.616 22.5725C312.914 22.5725 312.318 22.7195 311.828 23.0135C311.354 23.3075 310.995 23.7158 310.75 24.2385C310.521 24.7612 310.407 25.3573 310.407 26.027V32.6175H307.32Z" fill="#2A72E5"/>
<path d="M322.197 32.8625C321.119 32.8625 320.171 32.6093 319.355 32.103C318.538 31.5803 317.901 30.8372 317.444 29.8735C316.986 28.9098 316.758 27.7583 316.758 26.419C316.758 25.0797 316.986 23.9363 317.444 22.989C317.901 22.0253 318.538 21.2903 319.355 20.784C320.171 20.2613 321.119 20 322.197 20C323.242 20 324.157 20.2613 324.941 20.784C325.741 21.2903 326.272 21.9763 326.533 22.842H326.264L326.533 20.245H329.473C329.424 20.7513 329.375 21.2658 329.326 21.7885C329.294 22.3112 329.277 22.8257 329.277 23.332V32.6175H326.239L326.215 30.0695H326.509C326.247 30.9188 325.717 31.5967 324.916 32.103C324.116 32.6093 323.209 32.8625 322.197 32.8625ZM323.054 30.5105C324.018 30.5105 324.794 30.1757 325.382 29.506C325.97 28.82 326.264 27.791 326.264 26.419C326.264 25.047 325.97 24.0262 325.382 23.3565C324.794 22.6868 324.018 22.352 323.054 22.352C322.091 22.352 321.315 22.6868 320.727 23.3565C320.139 24.0262 319.845 25.047 319.845 26.419C319.845 27.791 320.131 28.82 320.702 29.506C321.29 30.1757 322.074 30.5105 323.054 30.5105Z" fill="#2A72E5"/>
<path d="M331.173 37.9095V23.332C331.173 22.8257 331.156 22.3112 331.124 21.7885C331.091 21.2658 331.042 20.7513 330.977 20.245H333.941L334.211 22.842H333.941C334.186 21.9763 334.701 21.2903 335.485 20.784C336.285 20.2613 337.208 20 338.253 20C339.347 20 340.303 20.2613 341.12 20.784C341.936 21.2903 342.573 22.0253 343.031 22.989C343.488 23.9363 343.717 25.0797 343.717 26.419C343.717 27.7583 343.488 28.9098 343.031 29.8735C342.573 30.8372 341.936 31.5803 341.12 32.103C340.303 32.6093 339.347 32.8625 338.253 32.8625C337.224 32.8625 336.318 32.6093 335.534 32.103C334.75 31.5967 334.227 30.9188 333.966 30.0695H334.235V37.9095H331.173ZM337.396 30.5105C338.376 30.5105 339.16 30.1757 339.748 29.506C340.336 28.82 340.63 27.791 340.63 26.419C340.63 25.047 340.336 24.0262 339.748 23.3565C339.16 22.6868 338.376 22.352 337.396 22.352C336.432 22.352 335.656 22.6868 335.068 23.3565C334.48 24.0262 334.186 25.047 334.186 26.419C334.186 27.791 334.48 28.82 335.068 29.506C335.656 30.1757 336.432 30.5105 337.396 30.5105Z" fill="#2A72E5"/>
<path d="M345.407 37.9095V23.332C345.407 22.8257 345.391 22.3112 345.358 21.7885C345.325 21.2658 345.276 20.7513 345.211 20.245H348.175L348.445 22.842H348.175C348.42 21.9763 348.935 21.2903 349.719 20.784C350.519 20.2613 351.442 20 352.487 20C353.582 20 354.537 20.2613 355.354 20.784C356.171 21.2903 356.808 22.0253 357.265 22.989C357.722 23.9363 357.951 25.0797 357.951 26.419C357.951 27.7583 357.722 28.9098 357.265 29.8735C356.808 30.8372 356.171 31.5803 355.354 32.103C354.537 32.6093 353.582 32.8625 352.487 32.8625C351.458 32.8625 350.552 32.6093 349.768 32.103C348.984 31.5967 348.461 30.9188 348.2 30.0695H348.469V37.9095H345.407ZM351.63 30.5105C352.61 30.5105 353.394 30.1757 353.982 29.506C354.57 28.82 354.864 27.791 354.864 26.419C354.864 25.047 354.57 24.0262 353.982 23.3565C353.394 22.6868 352.61 22.352 351.63 22.352C350.666 22.352 349.89 22.6868 349.302 23.3565C348.714 24.0262 348.42 25.047 348.42 26.419C348.42 27.791 348.714 28.82 349.302 29.506C349.89 30.1757 350.666 30.5105 351.63 30.5105Z" fill="#2A72E5"/>
<path d="M366.093 32.8625C364.704 32.8625 363.512 32.6093 362.516 32.103C361.536 31.5803 360.776 30.8372 360.237 29.8735C359.714 28.9098 359.453 27.7665 359.453 26.4435C359.453 25.1532 359.706 24.0262 360.213 23.0625C360.719 22.0988 361.421 21.3475 362.32 20.8085C363.234 20.2695 364.296 20 365.505 20C366.697 20 367.693 20.2532 368.494 20.7595C369.294 21.2658 369.898 21.9763 370.307 22.891C370.731 23.8057 370.944 24.8755 370.944 26.1005V26.909H361.928V25.292H368.763L368.347 25.635C368.347 24.4917 368.102 23.6178 367.612 23.0135C367.138 22.4092 366.444 22.107 365.529 22.107C364.843 22.107 364.263 22.2703 363.79 22.597C363.332 22.9237 362.981 23.3892 362.736 23.9935C362.491 24.5978 362.369 25.3328 362.369 26.1985V26.517C362.369 27.8563 362.695 28.8608 363.349 29.5305C364.018 30.1838 364.957 30.5105 366.166 30.5105C366.868 30.5105 367.522 30.4207 368.126 30.241C368.747 30.045 369.335 29.7347 369.89 29.31L370.797 31.368C370.209 31.8417 369.506 32.2092 368.69 32.4705C367.873 32.7318 367.007 32.8625 366.093 32.8625Z" fill="#2A72E5"/>
<path d="M372.617 32.6175V23.4055C372.617 22.8828 372.6 22.352 372.568 21.813C372.551 21.274 372.511 20.7513 372.445 20.245H375.41L375.753 23.626H375.263C375.426 22.8093 375.696 22.1315 376.071 21.5925C376.463 21.0535 376.937 20.6533 377.492 20.392C378.048 20.1307 378.652 20 379.305 20C379.599 20 379.836 20.0163 380.016 20.049C380.195 20.0653 380.375 20.1062 380.555 20.1715L380.53 22.8665C380.22 22.7358 379.95 22.6542 379.722 22.6215C379.509 22.5888 379.24 22.5725 378.913 22.5725C378.211 22.5725 377.615 22.7195 377.125 23.0135C376.651 23.3075 376.292 23.7158 376.047 24.2385C375.818 24.7612 375.704 25.3573 375.704 26.027V32.6175H372.617Z" fill="#2A72E5"/>
</g>
<defs>
<clipPath id="clip0_7401_111331">
<rect width="380" height="39" fill="white"/>
</clipPath>
</defs>
</svg>
