<svg width="96" height="96" viewBox="0 0 96 96" fill="none" xmlns="http://www.w3.org/2000/svg">
<g clip-path="url(#clip0_1069_16818)">
<rect width="96" height="96" rx="48" fill="#627EEA"/>
<path d="M48 96C74.5097 96 96 74.5097 96 48C96 21.4903 74.5097 0 48 0C21.4903 0 0 21.4903 0 48C0 74.5097 21.4903 96 48 96Z" fill="#627EEA"/>
<path d="M49.4961 11.9941V38.6054L71.9871 48.6568L49.4961 11.9941Z" fill="white" fill-opacity="0.602"/>
<path d="M49.4949 11.9941L27.0039 48.6568L49.4949 38.6054V11.9941Z" fill="white"/>
<path d="M49.4961 65.8981V83.9801L72.0002 52.8418L49.4961 65.8981Z" fill="white" fill-opacity="0.602"/>
<path d="M49.4949 83.9801V65.8981L27.0039 52.8418L49.4949 83.9801Z" fill="white"/>
<path d="M49.4961 61.7132L71.9871 48.6569L49.4961 38.6055V61.7132Z" fill="white" fill-opacity="0.2"/>
<path d="M27.0039 48.6569L49.4949 61.7132V38.6055L27.0039 48.6569Z" fill="white" fill-opacity="0.602"/>
</g>
<defs>
<clipPath id="clip0_1069_16818">
<rect width="96" height="96" rx="48" fill="white"/>
</clipPath>
</defs>
</svg>
