<svg width="97" height="96" viewBox="0 0 97 96" fill="none" xmlns="http://www.w3.org/2000/svg">
<rect x="0.683594" width="96" height="96" rx="48" fill="white"/>
<path d="M13.7943 40.9166C13.572 41.6177 13.2984 42.5627 13.1211 43.28C13.2442 42.7831 13.4729 42.3185 13.7915 41.9178C14.1102 41.5171 14.5114 41.1898 14.9679 40.958C15.8714 39.8076 17.0257 38.8786 18.3427 38.242C19.6597 37.6053 21.1047 37.2777 22.5675 37.2842V37.2572C17.109 35.7002 15.4152 37.4831 14.9418 38.321C14.4937 39.1551 14.1106 40.0226 13.7961 40.9157" fill="#007AFF"/>
<path d="M19.4512 32.5892L18.6484 33.3542C19.5718 32.6018 21.0946 32.7764 23.4391 33.9059C23.948 33.0008 24.593 32.1794 25.3516 31.4705C24.2401 30.6659 23.1133 29.9648 22.3978 30.2942C21.3605 30.9857 20.3754 31.7525 19.4503 32.5883" fill="#007AFF"/>
<path d="M30.6708 26.3171C29.8374 26.6213 28.7276 27.0272 27.9023 27.362C28.3342 27.8168 28.7224 28.3113 29.0616 28.8389C30.3057 28.1703 31.5995 27.5986 32.9316 27.1289C32.7075 26.2037 32.6525 25.742 32.9378 25.625C32.2565 25.8311 31.3439 26.0858 30.6689 26.3198" fill="#007AFF"/>
<path d="M44.2048 23.7885C42.9367 23.8911 41.2474 24.0477 39.9829 24.1953C39.3223 24.3582 39.0307 24.5922 38.7031 25.5813C40.4274 25.2561 42.1682 25.0254 43.9177 24.8901C44.177 24.5291 44.517 24.2338 44.9106 24.0274C45.3042 23.821 45.7405 23.7093 46.1848 23.7012L44.2048 23.7911" fill="#007AFF"/>
<path d="M58.2914 24.5439C57.1052 24.3639 55.523 24.1407 54.3314 24.0039C53.1412 23.8634 51.9396 24.1467 50.9375 24.804C52.7549 24.8973 54.5661 25.0862 56.3636 25.3701C57.707 24.7955 59.1991 24.6659 60.6215 25.0002C59.9222 24.8625 58.9943 24.6609 58.2914 24.5502" fill="#007AFF"/>
<path d="M70.9996 28.5349C70.1194 28.1299 68.9449 27.5989 68.0521 27.2308C66.2932 26.5072 64.3525 26.3499 62.5 26.7808C63.9491 27.2253 65.3668 27.7665 66.7435 28.4008C69.1708 28.107 71.624 28.6767 73.6735 30.01C72.8761 29.5537 71.815 28.9363 70.9951 28.5349" fill="#007AFF"/>
<path d="M83.6132 41.6509C83.0184 39.9628 82.1993 38.3623 81.1778 36.8926L80.5478 36.0331C77.7182 32.5915 74.8661 31.0669 71.0078 30.9355C71.9135 31.6193 72.7299 32.4138 73.4378 33.3007C79.8503 34.2007 84.2639 39.7987 84.6815 47.5603C84.6284 45.5476 84.2669 43.5549 83.6096 41.6518" fill="#007AFF"/>
<path d="M74.4508 65.4306C75.6762 64.6425 76.8378 63.7593 77.9248 62.7891C78.3343 62.394 78.8833 61.872 79.2748 61.458C87.2731 52.2564 83.6389 38.9778 75.0511 36.5703C75.1432 36.9888 75.193 37.4154 75.1996 37.8438V38.0724C75.191 38.4945 75.1406 38.9148 75.0493 39.327C84.2365 43.4436 83.3338 59.8722 73.5859 65.9607L74.4481 65.4315" fill="#007AFF"/>
<path d="M62.4354 70.2714C63.6315 69.9645 65.22 69.5244 66.4062 69.1644C78.1656 64.776 80.0412 46.857 73.4406 42.5469C72.7316 43.4111 71.915 44.1812 71.0106 44.8383C76.5906 50.952 70.872 68.2239 60.3906 70.7043L62.4336 70.2723" fill="#007AFF"/>
<path d="M48.7514 71.7001C49.8602 71.6902 51.3398 71.675 52.4486 71.6318C62.2163 70.6301 69.1679 52.8217 66.7487 47.248C65.3704 47.8445 63.9526 48.3449 62.5052 48.7456C62.4827 55.8691 52.8248 71.7857 45.8984 71.6057C46.7543 71.6363 47.8955 71.6956 48.7505 71.6956" fill="#007AFF"/>
<path d="M34.5838 69.8652C35.6746 70.1262 37.1335 70.4601 38.2306 70.6824C42.3058 70.9803 52.5685 57.2436 56.3584 49.9824C54.5533 50.2139 52.7372 50.3499 50.9178 50.3901C47.9595 53.2413 40.153 62.2089 38.6185 63.9801C34.6675 68.5341 33.1987 69.3981 32.6641 69.3207L34.5838 69.8661" fill="#007AFF"/>
<path d="M22.6786 64.7215C23.8613 65.509 25.0939 66.2188 26.3686 66.8464L26.473 66.8977C26.6917 65.7394 36.4045 54.2194 43.9033 50.0974C42.1548 49.9108 40.4177 49.6299 38.6995 49.2559C29.7409 52.6651 20.596 63.0961 22.1701 64.3759L22.6741 64.7215" fill="#007AFF"/>
<path d="M16.2 58.489C16.6239 59.0551 17.1963 59.8075 17.6472 60.3448C15.6294 57.292 24.1371 49.3864 32.94 47.5432C31.6062 47.0335 30.3125 46.4243 29.07 45.7207C20.97 46.5946 13.2597 52.2907 14.8455 56.2363C15.2343 56.9275 15.7545 57.8473 16.2027 58.4863" fill="#007AFF"/>
<path d="M12.6875 47.3077V47.6929C12.7226 48.3616 12.7775 49.2517 12.8522 49.915C12.6344 45.5788 19.2656 42.7771 25.3541 42.976C24.5948 42.2448 23.9495 41.4039 23.4398 40.4812C18.2927 39.8251 15.4793 41.1436 14.024 42.3631C13.1777 43.8755 12.7192 45.574 12.6893 47.3068" fill="#007AFF"/>
</svg>
