<svg width="96" height="96" viewBox="0 0 96 96" fill="none" xmlns="http://www.w3.org/2000/svg">
<rect width="96" height="96" rx="48" fill="#007AFF"/>
<path d="M13.1068 40.9166C12.8845 41.6177 12.6109 42.5627 12.4336 43.28C12.5567 42.7831 12.7854 42.3185 13.104 41.9178C13.4227 41.5171 13.8239 41.1898 14.2804 40.958C15.1839 39.8076 16.3382 38.8786 17.6552 38.242C18.9722 37.6053 20.4172 37.2777 21.88 37.2842V37.2572C16.4215 35.7002 14.7277 37.4831 14.2543 38.321C13.8062 39.1551 13.4231 40.0226 13.1086 40.9157" fill="white"/>
<path d="M18.7637 32.5892L17.9609 33.3542C18.8843 32.6018 20.4071 32.7764 22.7516 33.9059C23.2605 33.0008 23.9055 32.1794 24.6641 31.4705C23.5526 30.6659 22.4258 29.9648 21.7103 30.2942C20.673 30.9857 19.6879 31.7525 18.7628 32.5883" fill="white"/>
<path d="M29.9833 26.3171C29.1499 26.6213 28.0401 27.0272 27.2148 27.362C27.6467 27.8168 28.0349 28.3113 28.3741 28.8389C29.6182 28.1703 30.912 27.5986 32.2441 27.1289C32.02 26.2037 31.965 25.742 32.2503 25.625C31.569 25.8311 30.6564 26.0858 29.9814 26.3198" fill="white"/>
<path d="M43.5173 23.7885C42.2492 23.8911 40.5599 24.0477 39.2954 24.1953C38.6348 24.3582 38.3432 24.5922 38.0156 25.5813C39.7399 25.2561 41.4807 25.0254 43.2302 24.8901C43.4895 24.5291 43.8295 24.2338 44.2231 24.0274C44.6167 23.821 45.053 23.7093 45.4973 23.7012L43.5173 23.7911" fill="white"/>
<path d="M57.6039 24.5439C56.4177 24.3639 54.8355 24.1407 53.6439 24.0039C52.4537 23.8634 51.2521 24.1467 50.25 24.804C52.0674 24.8973 53.8786 25.0862 55.6761 25.3701C57.0195 24.7955 58.5116 24.6659 59.934 25.0002C59.2347 24.8625 58.3068 24.6609 57.6039 24.5502" fill="white"/>
<path d="M70.3121 28.5349C69.4319 28.1299 68.2574 27.5989 67.3646 27.2308C65.6057 26.5072 63.665 26.3499 61.8125 26.7808C63.2616 27.2253 64.6793 27.7665 66.056 28.4008C68.4833 28.107 70.9365 28.6767 72.986 30.01C72.1886 29.5537 71.1275 28.9363 70.3076 28.5349" fill="white"/>
<path d="M82.9257 41.6509C82.3309 39.9628 81.5118 38.3623 80.4903 36.8926L79.8603 36.0331C77.0307 32.5915 74.1786 31.0669 70.3203 30.9355C71.226 31.6193 72.0424 32.4138 72.7503 33.3007C79.1628 34.2007 83.5764 39.7987 83.994 47.5603C83.9409 45.5476 83.5794 43.5549 82.9221 41.6518" fill="white"/>
<path d="M73.7633 65.4306C74.9887 64.6425 76.1503 63.7593 77.2373 62.7891C77.6468 62.394 78.1958 61.872 78.5873 61.458C86.5856 52.2564 82.9514 38.9778 74.3636 36.5703C74.4557 36.9888 74.5055 37.4154 74.5121 37.8438V38.0724C74.5035 38.4945 74.4531 38.9148 74.3618 39.327C83.549 43.4436 82.6463 59.8722 72.8984 65.9607L73.7606 65.4315" fill="white"/>
<path d="M61.7479 70.2714C62.944 69.9645 64.5325 69.5244 65.7187 69.1644C77.4781 64.776 79.3537 46.857 72.7531 42.5469C72.0441 43.4111 71.2275 44.1812 70.3231 44.8383C75.9031 50.952 70.1845 68.2239 59.7031 70.7043L61.7461 70.2723" fill="white"/>
<path d="M48.0639 71.7001C49.1727 71.6902 50.6523 71.675 51.7611 71.6318C61.5288 70.6301 68.4804 52.8217 66.0612 47.248C64.6829 47.8445 63.2651 48.3449 61.8177 48.7456C61.7952 55.8691 52.1373 71.7857 45.2109 71.6057C46.0668 71.6363 47.208 71.6956 48.063 71.6956" fill="white"/>
<path d="M33.8963 69.8652C34.9871 70.1262 36.446 70.4601 37.5431 70.6824C41.6183 70.9803 51.881 57.2436 55.6709 49.9824C53.8658 50.2139 52.0497 50.3499 50.2303 50.3901C47.272 53.2413 39.4655 62.2089 37.931 63.9801C33.98 68.5341 32.5112 69.3981 31.9766 69.3207L33.8963 69.8661" fill="white"/>
<path d="M21.9911 64.7215C23.1738 65.509 24.4064 66.2188 25.6811 66.8464L25.7855 66.8977C26.0042 65.7394 35.717 54.2194 43.2158 50.0974C41.4673 49.9108 39.7302 49.6299 38.012 49.2559C29.0534 52.6651 19.9085 63.0961 21.4826 64.3759L21.9866 64.7215" fill="white"/>
<path d="M15.5125 58.489C15.9364 59.0551 16.5088 59.8075 16.9597 60.3448C14.9419 57.292 23.4496 49.3864 32.2525 47.5432C30.9187 47.0335 29.625 46.4243 28.3825 45.7207C20.2825 46.5946 12.5722 52.2907 14.158 56.2363C14.5468 56.9275 15.067 57.8473 15.5152 58.4863" fill="white"/>
<path d="M12 47.3077V47.6929C12.0351 48.3616 12.09 49.2517 12.1647 49.915C11.9469 45.5788 18.5781 42.7771 24.6666 42.976C23.9073 42.2448 23.262 41.4039 22.7523 40.4812C17.6052 39.8251 14.7918 41.1436 13.3365 42.3631C12.4902 43.8755 12.0317 45.574 12.0018 47.3068" fill="white"/>
</svg>
